<mxfile host="app.diagrams.net" modified="2021-03-01T15:26:52.820Z" agent="5.0 (Macintosh; Intel Mac OS X 10_15_7) AppleWebKit/605.1.15 (KHTML, like Gecko) Version/13.1.3 Safari/605.1.15" etag="OexvBwtX14meULjvBLBe" version="14.4.3" type="github">
  <diagram id="C5RBs43oDa-KdzZeNtuy" name="Page-1">
    <mxGraphModel dx="1488" dy="415" grid="1" gridSize="10" guides="1" tooltips="1" connect="1" arrows="1" fold="1" page="1" pageScale="1" pageWidth="827" pageHeight="1169" math="0" shadow="0">
      <root>
        <mxCell id="WIyWlLk6GJQsqaUBKTNV-0" />
        <mxCell id="WIyWlLk6GJQsqaUBKTNV-1" parent="WIyWlLk6GJQsqaUBKTNV-0" />
        <mxCell id="2GLRJSDP7bb-5m_urF_g-1" style="edgeStyle=orthogonalEdgeStyle;rounded=0;orthogonalLoop=1;jettySize=auto;html=1;exitX=1;exitY=0.5;exitDx=0;exitDy=0;entryX=0;entryY=0.5;entryDx=0;entryDy=0;endArrow=block;endFill=0;" edge="1" parent="WIyWlLk6GJQsqaUBKTNV-1" source="WIyWlLk6GJQsqaUBKTNV-3" target="2GLRJSDP7bb-5m_urF_g-0">
          <mxGeometry relative="1" as="geometry" />
        </mxCell>
        <mxCell id="WIyWlLk6GJQsqaUBKTNV-3" value="Поиск и сопоставление ключевых точек" style="rounded=1;whiteSpace=wrap;html=1;fontSize=12;glass=0;strokeWidth=1;shadow=0;" parent="WIyWlLk6GJQsqaUBKTNV-1" vertex="1">
          <mxGeometry y="180" width="120" height="40" as="geometry" />
        </mxCell>
        <mxCell id="2GLRJSDP7bb-5m_urF_g-3" style="edgeStyle=orthogonalEdgeStyle;rounded=0;orthogonalLoop=1;jettySize=auto;html=1;startArrow=none;startFill=0;endArrow=block;endFill=0;entryX=0;entryY=0.5;entryDx=0;entryDy=0;exitX=1;exitY=0.5;exitDx=0;exitDy=0;" edge="1" parent="WIyWlLk6GJQsqaUBKTNV-1" source="2GLRJSDP7bb-5m_urF_g-26" target="2GLRJSDP7bb-5m_urF_g-24">
          <mxGeometry relative="1" as="geometry">
            <mxPoint x="270" y="200" as="sourcePoint" />
            <mxPoint x="290" y="200" as="targetPoint" />
          </mxGeometry>
        </mxCell>
        <mxCell id="2GLRJSDP7bb-5m_urF_g-0" value="Оценка относительных поз камер" style="rounded=1;whiteSpace=wrap;html=1;fontSize=12;glass=0;strokeWidth=1;shadow=0;" vertex="1" parent="WIyWlLk6GJQsqaUBKTNV-1">
          <mxGeometry x="140" y="180" width="120" height="40" as="geometry" />
        </mxCell>
        <mxCell id="2GLRJSDP7bb-5m_urF_g-10" style="edgeStyle=orthogonalEdgeStyle;rounded=0;orthogonalLoop=1;jettySize=auto;html=1;startArrow=none;startFill=0;endArrow=block;endFill=0;exitX=1;exitY=0.5;exitDx=0;exitDy=0;" edge="1" parent="WIyWlLk6GJQsqaUBKTNV-1" source="2GLRJSDP7bb-5m_urF_g-24" target="2GLRJSDP7bb-5m_urF_g-9">
          <mxGeometry relative="1" as="geometry">
            <mxPoint x="640" y="200" as="sourcePoint" />
          </mxGeometry>
        </mxCell>
        <mxCell id="2GLRJSDP7bb-5m_urF_g-9" value="Создание &amp;nbsp;модели" style="rounded=1;whiteSpace=wrap;html=1;fontSize=12;glass=0;strokeWidth=1;shadow=0;" vertex="1" parent="WIyWlLk6GJQsqaUBKTNV-1">
          <mxGeometry x="660" y="180" width="120" height="40" as="geometry" />
        </mxCell>
        <mxCell id="2GLRJSDP7bb-5m_urF_g-24" value="Получение глобальных поз" style="swimlane;" vertex="1" parent="WIyWlLk6GJQsqaUBKTNV-1">
          <mxGeometry x="300" y="100" width="330" height="200" as="geometry" />
        </mxCell>
        <mxCell id="2GLRJSDP7bb-5m_urF_g-2" value="Усреднение вращений" style="rounded=1;whiteSpace=wrap;html=1;fontSize=12;glass=0;strokeWidth=1;shadow=0;" vertex="1" parent="2GLRJSDP7bb-5m_urF_g-24">
          <mxGeometry x="20" y="40" width="120" height="40" as="geometry" />
        </mxCell>
        <mxCell id="2GLRJSDP7bb-5m_urF_g-5" value="Усреднение движений" style="rounded=1;whiteSpace=wrap;html=1;fontSize=12;glass=0;strokeWidth=1;shadow=0;" vertex="1" parent="2GLRJSDP7bb-5m_urF_g-24">
          <mxGeometry x="20" y="130" width="120" height="40" as="geometry" />
        </mxCell>
        <mxCell id="2GLRJSDP7bb-5m_urF_g-6" style="edgeStyle=orthogonalEdgeStyle;rounded=0;orthogonalLoop=1;jettySize=auto;html=1;exitX=0.5;exitY=1;exitDx=0;exitDy=0;entryX=0.5;entryY=0;entryDx=0;entryDy=0;startArrow=none;startFill=0;endArrow=block;endFill=0;" edge="1" parent="2GLRJSDP7bb-5m_urF_g-24" source="2GLRJSDP7bb-5m_urF_g-2" target="2GLRJSDP7bb-5m_urF_g-5">
          <mxGeometry relative="1" as="geometry" />
        </mxCell>
        <mxCell id="2GLRJSDP7bb-5m_urF_g-7" value="Bundle Adjustment" style="rounded=1;whiteSpace=wrap;html=1;fontSize=12;glass=0;strokeWidth=1;shadow=0;" vertex="1" parent="2GLRJSDP7bb-5m_urF_g-24">
          <mxGeometry x="190" y="80" width="120" height="40" as="geometry" />
        </mxCell>
        <mxCell id="2GLRJSDP7bb-5m_urF_g-8" style="edgeStyle=orthogonalEdgeStyle;rounded=0;orthogonalLoop=1;jettySize=auto;html=1;exitX=1;exitY=0.5;exitDx=0;exitDy=0;entryX=0;entryY=0.5;entryDx=0;entryDy=0;startArrow=none;startFill=0;endArrow=block;endFill=0;" edge="1" parent="2GLRJSDP7bb-5m_urF_g-24" source="2GLRJSDP7bb-5m_urF_g-5" target="2GLRJSDP7bb-5m_urF_g-7">
          <mxGeometry relative="1" as="geometry" />
        </mxCell>
        <mxCell id="2GLRJSDP7bb-5m_urF_g-26" value="Оценивание относительных поз" style="swimlane;" vertex="1" parent="WIyWlLk6GJQsqaUBKTNV-1">
          <mxGeometry x="-10" y="100" width="280" height="200" as="geometry" />
        </mxCell>
      </root>
    </mxGraphModel>
  </diagram>
</mxfile>
